<svg width="44" height="24" viewBox="0 0 44 24" fill="none" xmlns="http://www.w3.org/2000/svg">
<g filter="url(#filter0_d_314_71)">
<rect x="2" y="1" width="38" height="18" rx="7" fill="#88C0A8"/>
</g>
<path d="M15.52 9.66L16.08 9.25C16.3333 9.47 16.6 9.71 16.88 9.97C17.16 10.2233 17.4333 10.4833 17.7 10.75C17.9667 11.01 18.2167 11.2633 18.45 11.51C18.6833 11.75 18.88 11.9667 19.04 12.16L18.42 12.65C18.2667 12.45 18.0767 12.2267 17.85 11.98C17.63 11.7333 17.3867 11.4733 17.12 11.2C16.86 10.9267 16.59 10.66 16.31 10.4C16.0367 10.1333 15.7733 9.88667 15.52 9.66ZM15.63 5.6H16.39V7.56C16.39 7.88 16.37 8.21667 16.33 8.57C16.2967 8.92333 16.2267 9.28333 16.12 9.65C16.02 10.0167 15.8633 10.3833 15.65 10.75C15.4433 11.1167 15.1667 11.47 14.82 11.81C14.4733 12.15 14.0433 12.4733 13.53 12.78C13.4967 12.72 13.4467 12.6567 13.38 12.59C13.32 12.5233 13.2533 12.4533 13.18 12.38C13.1133 12.3067 13.05 12.25 12.99 12.21C13.49 11.9433 13.9033 11.6567 14.23 11.35C14.5567 11.0367 14.8133 10.7167 15 10.39C15.1933 10.0567 15.3333 9.72667 15.42 9.4C15.5067 9.07333 15.5633 8.75333 15.59 8.44C15.6167 8.12667 15.63 7.83 15.63 7.55V5.6ZM11.99 7.31H19.63V8.05H12.73V14.82H11.99V7.31ZM19.29 7.31H20.03V13.81C20.03 14.0567 19.9967 14.2433 19.93 14.37C19.8633 14.5033 19.7467 14.6033 19.58 14.67C19.4 14.73 19.1533 14.7633 18.84 14.77C18.5333 14.7833 18.1567 14.79 17.71 14.79C17.6967 14.7167 17.6767 14.6333 17.65 14.54C17.6233 14.4533 17.5933 14.3633 17.56 14.27C17.5267 14.1767 17.49 14.0967 17.45 14.03C17.69 14.0367 17.9167 14.04 18.13 14.04C18.35 14.0467 18.54 14.05 18.7 14.05C18.8667 14.05 18.98 14.05 19.04 14.05C19.14 14.0433 19.2067 14.0233 19.24 13.99C19.2733 13.95 19.29 13.8867 19.29 13.8V7.31ZM26.17 6.05H30.18V10.04H26.17V9.34H29.43V6.76H26.17V6.05ZM25.77 6.05H26.5V9.69C26.5 10.0833 26.4833 10.5067 26.45 10.96C26.4233 11.4067 26.3633 11.86 26.27 12.32C26.1833 12.78 26.0533 13.2233 25.88 13.65C25.7133 14.0767 25.4867 14.4633 25.2 14.81C25.16 14.7633 25.1033 14.7067 25.03 14.64C24.9633 14.5733 24.89 14.51 24.81 14.45C24.7367 14.3967 24.6733 14.3533 24.62 14.32C24.8867 13.9933 25.0967 13.64 25.25 13.26C25.4033 12.8733 25.5167 12.4767 25.59 12.07C25.6633 11.6567 25.71 11.2467 25.73 10.84C25.7567 10.4333 25.77 10.05 25.77 9.69V6.05ZM28.47 9.73C28.5633 10.3967 28.6933 10.9933 28.86 11.52C29.0267 12.0467 29.2567 12.5267 29.55 12.96C29.85 13.3867 30.2367 13.7933 30.71 14.18C30.6167 14.26 30.52 14.3567 30.42 14.47C30.3267 14.59 30.2533 14.7067 30.2 14.82C29.6667 14.3733 29.24 13.9033 28.92 13.41C28.6 12.9167 28.35 12.3767 28.17 11.79C27.9967 11.2033 27.86 10.5467 27.76 9.82L28.47 9.73ZM21.85 8.63H24.78V9.22H21.85V8.63ZM21.89 5.95H24.74V6.55H21.89V5.95ZM21.85 9.96H24.78V10.56H21.85V9.96ZM21.38 7.26H25.11V7.89H21.38V7.26ZM22.19 11.31H24.79V14.23H22.19V13.61H24.13V11.94H22.19V11.31ZM21.84 11.31H22.5V14.69H21.84V11.31Z" fill="white"/>
<defs>
<filter id="filter0_d_314_71" x="0" y="0" width="44" height="24" filterUnits="userSpaceOnUse" color-interpolation-filters="sRGB">
<feFlood flood-opacity="0" result="BackgroundImageFix"/>
<feColorMatrix in="SourceAlpha" type="matrix" values="0 0 0 0 0 0 0 0 0 0 0 0 0 0 0 0 0 0 127 0" result="hardAlpha"/>
<feOffset dx="1" dy="2"/>
<feGaussianBlur stdDeviation="1.5"/>
<feComposite in2="hardAlpha" operator="out"/>
<feColorMatrix type="matrix" values="0 0 0 0 0 0 0 0 0 0 0 0 0 0 0 0 0 0 0.25 0"/>
<feBlend mode="normal" in2="BackgroundImageFix" result="effect1_dropShadow_314_71"/>
<feBlend mode="normal" in="SourceGraphic" in2="effect1_dropShadow_314_71" result="shape"/>
</filter>
</defs>
</svg>
