<svg width="226" height="24" viewBox="0 0 226 24" fill="none" xmlns="http://www.w3.org/2000/svg">
<path d="M63.5057 19V17.7216L68.3068 12.4659C68.8703 11.8504 69.3343 11.3153 69.6989 10.8608C70.0634 10.4015 70.3333 9.97064 70.5085 9.56818C70.6884 9.16098 70.7784 8.73485 70.7784 8.28977C70.7784 7.77841 70.6553 7.3357 70.4091 6.96165C70.1676 6.58759 69.8362 6.29877 69.4148 6.09517C68.9934 5.89157 68.5199 5.78977 67.9943 5.78977C67.4356 5.78977 66.9479 5.90578 66.5312 6.13778C66.1193 6.36506 65.7997 6.68466 65.5724 7.09659C65.3499 7.50852 65.2386 7.99148 65.2386 8.54545H63.5625C63.5625 7.69318 63.759 6.94508 64.152 6.30114C64.545 5.6572 65.08 5.1553 65.7571 4.79545C66.4389 4.43561 67.2036 4.25568 68.0511 4.25568C68.9034 4.25568 69.6586 4.43561 70.3168 4.79545C70.9749 5.1553 71.491 5.64062 71.8651 6.25142C72.2391 6.86222 72.4261 7.54167 72.4261 8.28977C72.4261 8.82481 72.3291 9.34801 72.1349 9.85938C71.9455 10.366 71.6141 10.9318 71.1406 11.5568C70.6719 12.1771 70.0208 12.9347 69.1875 13.8295L65.9205 17.3239V17.4375H72.6818V19H63.5057ZM80.3594 19.1989C79.2893 19.1989 78.3778 18.9077 77.625 18.3253C76.8722 17.7382 76.2969 16.8883 75.8991 15.7756C75.5014 14.6581 75.3026 13.3087 75.3026 11.7273C75.3026 10.1553 75.5014 8.81297 75.8991 7.70028C76.3016 6.58286 76.8793 5.73059 77.6321 5.14347C78.3897 4.55161 79.2988 4.25568 80.3594 4.25568C81.42 4.25568 82.3267 4.55161 83.0795 5.14347C83.8371 5.73059 84.4148 6.58286 84.8125 7.70028C85.215 8.81297 85.4162 10.1553 85.4162 11.7273C85.4162 13.3087 85.2173 14.6581 84.8196 15.7756C84.4219 16.8883 83.8466 17.7382 83.0938 18.3253C82.3409 18.9077 81.4295 19.1989 80.3594 19.1989ZM80.3594 17.6364C81.42 17.6364 82.2438 17.125 82.831 16.1023C83.4181 15.0795 83.7116 13.6212 83.7116 11.7273C83.7116 10.4678 83.5767 9.39536 83.3068 8.50994C83.0417 7.62453 82.6581 6.94981 82.1562 6.4858C81.6591 6.02178 81.0601 5.78977 80.3594 5.78977C79.3082 5.78977 78.4867 6.30824 77.8949 7.34517C77.303 8.37737 77.0071 9.83807 77.0071 11.7273C77.0071 12.9867 77.1397 14.0568 77.4048 14.9375C77.67 15.8182 78.0511 16.4882 78.5483 16.9474C79.0502 17.4067 79.6539 17.6364 80.3594 17.6364ZM88.1151 19V17.7216L92.9162 12.4659C93.4796 11.8504 93.9437 11.3153 94.3082 10.8608C94.6728 10.4015 94.9427 9.97064 95.1179 9.56818C95.2978 9.16098 95.3878 8.73485 95.3878 8.28977C95.3878 7.77841 95.2647 7.3357 95.0185 6.96165C94.777 6.58759 94.4455 6.29877 94.0241 6.09517C93.6027 5.89157 93.1293 5.78977 92.6037 5.78977C92.045 5.78977 91.5573 5.90578 91.1406 6.13778C90.7287 6.36506 90.4091 6.68466 90.1818 7.09659C89.9593 7.50852 89.848 7.99148 89.848 8.54545H88.1719C88.1719 7.69318 88.3684 6.94508 88.7614 6.30114C89.1544 5.6572 89.6894 5.1553 90.3665 4.79545C91.0483 4.43561 91.813 4.25568 92.6605 4.25568C93.5128 4.25568 94.268 4.43561 94.9261 4.79545C95.5843 5.1553 96.1004 5.64062 96.4744 6.25142C96.8485 6.86222 97.0355 7.54167 97.0355 8.28977C97.0355 8.82481 96.9384 9.34801 96.7443 9.85938C96.5549 10.366 96.2235 10.9318 95.75 11.5568C95.2812 12.1771 94.6302 12.9347 93.7969 13.8295L90.5298 17.3239V17.4375H97.2912V19H88.1151ZM105.054 19.1989C104.457 19.1894 103.861 19.0758 103.264 18.858C102.668 18.6402 102.123 18.2732 101.631 17.7571C101.138 17.2363 100.743 16.5331 100.445 15.6477C100.146 14.7576 99.9972 13.6402 99.9972 12.2955C99.9972 11.0076 100.118 9.86648 100.359 8.87216C100.601 7.87311 100.951 7.03267 101.411 6.35085C101.87 5.6643 102.424 5.14347 103.072 4.78835C103.726 4.43324 104.462 4.25568 105.281 4.25568C106.096 4.25568 106.82 4.41903 107.455 4.74574C108.094 5.06771 108.615 5.51752 109.017 6.09517C109.42 6.67282 109.68 7.33807 109.798 8.09091H108.065C107.904 7.4375 107.592 6.89536 107.128 6.46449C106.664 6.03362 106.048 5.81818 105.281 5.81818C104.154 5.81818 103.267 6.30824 102.618 7.28835C101.974 8.26847 101.65 9.64394 101.645 11.4148H101.759C102.024 11.0123 102.339 10.669 102.703 10.3849C103.072 10.0961 103.48 9.87358 103.925 9.71733C104.37 9.56108 104.841 9.48295 105.338 9.48295C106.171 9.48295 106.934 9.69129 107.625 10.108C108.316 10.5199 108.87 11.0904 109.287 11.8196C109.704 12.544 109.912 13.375 109.912 14.3125C109.912 15.2121 109.711 16.036 109.308 16.7841C108.906 17.5275 108.34 18.1193 107.611 18.5597C106.886 18.9953 106.034 19.2083 105.054 19.1989ZM105.054 17.6364C105.651 17.6364 106.186 17.4872 106.659 17.1889C107.137 16.8906 107.514 16.4905 107.788 15.9886C108.068 15.4867 108.207 14.928 108.207 14.3125C108.207 13.7112 108.072 13.1643 107.803 12.6719C107.537 12.1747 107.17 11.7794 106.702 11.4858C106.238 11.1922 105.707 11.0455 105.111 11.0455C104.661 11.0455 104.242 11.1354 103.854 11.3153C103.465 11.4905 103.125 11.732 102.831 12.0398C102.542 12.3475 102.315 12.7003 102.149 13.098C101.983 13.491 101.901 13.9053 101.901 14.3409C101.901 14.9186 102.036 15.4583 102.305 15.9602C102.58 16.4621 102.954 16.867 103.428 17.1747C103.906 17.4825 104.448 17.6364 105.054 17.6364ZM116.739 2.12L118.259 2.52C117.886 3.49333 117.446 4.44667 116.939 5.38C116.446 6.3 115.906 7.16 115.319 7.96C114.733 8.74667 114.126 9.44 113.499 10.04C113.406 9.96 113.279 9.86 113.119 9.74C112.973 9.60667 112.813 9.48 112.639 9.36C112.479 9.24 112.333 9.14667 112.199 9.08C112.839 8.52 113.439 7.88 113.999 7.16C114.573 6.42667 115.093 5.63333 115.559 4.78C116.026 3.91333 116.419 3.02667 116.739 2.12ZM116.439 4.62H129.339V6.06H115.699L116.439 4.62ZM115.459 9.14H128.879V10.56H116.959V15.28H115.459V9.14ZM112.159 14.54H130.279V15.98H112.159V14.54ZM121.439 5.38H122.979V20.6H121.439V5.38ZM137.336 4.25568C137.932 4.26042 138.529 4.37405 139.125 4.59659C139.722 4.81913 140.266 5.18845 140.759 5.70455C141.251 6.21591 141.647 6.9143 141.945 7.79972C142.243 8.68513 142.392 9.79545 142.392 11.1307C142.392 12.4233 142.269 13.5715 142.023 14.5753C141.782 15.5743 141.431 16.4171 140.972 17.1037C140.517 17.7902 139.963 18.3111 139.31 18.6662C138.661 19.0213 137.927 19.1989 137.108 19.1989C136.294 19.1989 135.567 19.0379 134.928 18.7159C134.293 18.3892 133.773 17.937 133.365 17.3594C132.963 16.777 132.705 16.1023 132.591 15.3352H134.324C134.48 16.0028 134.791 16.5545 135.255 16.9901C135.723 17.4209 136.341 17.6364 137.108 17.6364C138.23 17.6364 139.116 17.1463 139.765 16.1662C140.418 15.1861 140.745 13.8011 140.745 12.0114H140.631C140.366 12.4091 140.051 12.7524 139.686 13.0412C139.322 13.33 138.917 13.5526 138.472 13.7088C138.027 13.8651 137.553 13.9432 137.051 13.9432C136.218 13.9432 135.453 13.7372 134.757 13.3253C134.066 12.9086 133.512 12.3381 133.096 11.6136C132.684 10.8845 132.478 10.0511 132.478 9.11364C132.478 8.22348 132.676 7.40909 133.074 6.67045C133.477 5.92708 134.04 5.33523 134.765 4.89489C135.494 4.45455 136.351 4.24148 137.336 4.25568ZM137.336 5.81818C136.739 5.81818 136.202 5.96733 135.723 6.26562C135.25 6.55919 134.873 6.95691 134.594 7.45881C134.319 7.95597 134.182 8.50758 134.182 9.11364C134.182 9.7197 134.315 10.2713 134.58 10.7685C134.85 11.2609 135.217 11.6539 135.681 11.9474C136.15 12.2363 136.682 12.3807 137.279 12.3807C137.729 12.3807 138.148 12.2931 138.536 12.1179C138.924 11.938 139.263 11.6941 139.551 11.3864C139.845 11.0739 140.075 10.7211 140.24 10.3281C140.406 9.9304 140.489 9.5161 140.489 9.08523C140.489 8.51704 140.352 7.98437 140.077 7.48722C139.807 6.99006 139.433 6.58759 138.955 6.27983C138.481 5.97206 137.942 5.81818 137.336 5.81818ZM148.76 3.26H159.18V4.72H148.76V3.26ZM148.76 8.08H159.28V9.5H148.76V8.08ZM148.6 12.9H159.18V14.36H148.6V12.9ZM147.82 3.26H149.34V9.42C149.34 10.2867 149.293 11.2133 149.2 12.2C149.12 13.1867 148.946 14.1867 148.68 15.2C148.413 16.2 148.013 17.1667 147.48 18.1C146.96 19.0333 146.266 19.8733 145.4 20.62C145.333 20.5133 145.226 20.3867 145.08 20.24C144.946 20.0933 144.806 19.9533 144.66 19.82C144.513 19.7 144.38 19.6067 144.26 19.54C145.073 18.82 145.713 18.0467 146.18 17.22C146.66 16.38 147.013 15.5133 147.24 14.62C147.48 13.7267 147.633 12.84 147.7 11.96C147.78 11.0667 147.82 10.22 147.82 9.42V3.26ZM158.52 3.26H160.1V18.38C160.1 18.9133 160.02 19.32 159.86 19.6C159.7 19.88 159.433 20.0867 159.06 20.22C158.673 20.3533 158.133 20.4333 157.44 20.46C156.746 20.5 155.866 20.52 154.8 20.52C154.773 20.36 154.72 20.1867 154.64 20C154.573 19.8133 154.493 19.62 154.4 19.42C154.32 19.2333 154.24 19.0733 154.16 18.94C154.72 18.9533 155.253 18.9667 155.76 18.98C156.28 18.98 156.726 18.98 157.1 18.98C157.486 18.9667 157.753 18.96 157.9 18.96C158.14 18.9467 158.3 18.9 158.38 18.82C158.473 18.7267 158.52 18.5733 158.52 18.36V3.26Z" fill="#2A2A2A"/>
<path d="M223 10.2778C224.333 11.0476 224.333 12.9721 223 13.7419L214 18.9381C212.667 19.7079 211 18.7456 211 17.206V6.81374C211 5.27414 212.667 4.31188 214 5.08168L223 10.2778Z" fill="#88C0A8"/>
<path d="M3.01162 13.7488C1.67753 12.9803 1.67563 11.0558 3.0082 10.2847L12.0031 5.07968C13.3356 4.30857 15.0033 5.26917 15.0048 6.80877L15.015 17.2011C15.0165 18.7407 13.3508 19.7046 12.0167 18.9361L3.01162 13.7488Z" fill="#88C0A8"/>
</svg>
