<svg width="317" height="316" viewBox="0 0 317 316" fill="none" xmlns="http://www.w3.org/2000/svg">
<rect x="31" y="9" width="285" height="283" fill="white" stroke="#88C0A8" stroke-width="2"/>
<path d="M30 65H40" stroke="#88C0A8" stroke-width="2"/>
<path d="M32 179H42" stroke="#88C0A8" stroke-width="2"/>
<path d="M32 236H42" stroke="#88C0A8" stroke-width="2"/>
<path d="M30 122H40" stroke="#88C0A8" stroke-width="2"/>
<rect x="62" y="163" width="30" height="128" fill="#88C0A8"/>
<rect x="112" y="130" width="30" height="161" fill="#88C0A8"/>
<rect x="162" y="97" width="30" height="194" fill="#88C0A8"/>
<rect x="212" y="114" width="30" height="177" fill="#88C0A8"/>
<rect x="262" y="78" width="30" height="213" fill="#88C0A8"/>
<path d="M66.104 313.129C65.4424 313.129 64.8576 313.015 64.3498 312.788C63.8451 312.56 63.4496 312.246 63.1634 311.846C62.8771 311.446 62.7356 310.99 62.7386 310.479C62.7356 310.079 62.8171 309.712 62.9833 309.376C63.1526 309.038 63.3819 308.756 63.6712 308.531C63.9605 308.304 64.2836 308.159 64.6406 308.097V308.042C64.1697 307.928 63.7927 307.676 63.5096 307.285C63.2264 306.894 63.0864 306.445 63.0895 305.937C63.0864 305.454 63.2141 305.023 63.4727 304.644C63.7343 304.263 64.0928 303.962 64.5483 303.744C65.0038 303.525 65.5224 303.416 66.104 303.416C66.6796 303.416 67.1935 303.527 67.646 303.749C68.1014 303.967 68.46 304.267 68.7216 304.649C68.9832 305.027 69.1155 305.457 69.1186 305.937C69.1155 306.445 68.9709 306.894 68.6847 307.285C68.3984 307.676 68.026 307.928 67.5675 308.042V308.097C67.9214 308.159 68.2399 308.304 68.5231 308.531C68.8093 308.756 69.0371 309.038 69.2063 309.376C69.3787 309.712 69.4664 310.079 69.4695 310.479C69.4664 310.99 69.3217 311.446 69.0355 311.846C68.7493 312.246 68.3523 312.56 67.8445 312.788C67.3397 313.015 66.7596 313.129 66.104 313.129ZM66.104 311.961C66.4949 311.961 66.8335 311.897 67.1197 311.767C67.4059 311.635 67.6275 311.452 67.7844 311.218C67.9414 310.981 68.0214 310.704 68.0245 310.387C68.0214 310.058 67.9353 309.767 67.766 309.515C67.5998 309.262 67.3736 309.064 67.0874 308.919C66.8011 308.774 66.4734 308.702 66.104 308.702C65.7317 308.702 65.4008 308.774 65.1115 308.919C64.8222 309.064 64.5945 309.262 64.4283 309.515C64.2621 309.767 64.1805 310.058 64.1836 310.387C64.1805 310.704 64.2559 310.981 64.4098 311.218C64.5668 311.452 64.7899 311.635 65.0792 311.767C65.3685 311.897 65.7101 311.961 66.104 311.961ZM66.104 307.562C66.418 307.562 66.6965 307.499 66.9396 307.373C67.1828 307.246 67.3736 307.071 67.5121 306.846C67.6536 306.622 67.726 306.358 67.729 306.057C67.726 305.761 67.6552 305.503 67.5167 305.281C67.3813 305.06 67.192 304.889 66.9489 304.769C66.7057 304.646 66.4241 304.584 66.104 304.584C65.7778 304.584 65.4916 304.646 65.2454 304.769C65.0022 304.889 64.813 305.06 64.6776 305.281C64.5421 305.503 64.476 305.761 64.479 306.057C64.476 306.358 64.5437 306.622 64.6822 306.846C64.8207 307.071 65.0115 307.246 65.2546 307.373C65.5008 307.499 65.784 307.562 66.104 307.562ZM78.1831 303.102L75.1362 314.422H73.9036L76.9505 303.102H78.1831ZM85.9214 303.416C86.3431 303.419 86.7586 303.496 87.1679 303.647C87.5772 303.798 87.9465 304.044 88.2758 304.386C88.6082 304.727 88.8729 305.189 89.0699 305.771C89.2699 306.349 89.3715 307.069 89.3746 307.931C89.3746 308.759 89.2915 309.496 89.1253 310.142C88.9591 310.786 88.7206 311.329 88.4097 311.772C88.1019 312.215 87.728 312.552 87.2879 312.783C86.8478 313.014 86.3523 313.129 85.8014 313.129C85.2382 313.129 84.7381 313.018 84.301 312.797C83.864 312.575 83.5086 312.269 83.2346 311.878C82.9607 311.484 82.7899 311.032 82.7222 310.521H84.1302C84.2226 310.927 84.4103 311.257 84.6934 311.509C84.9797 311.758 85.349 311.883 85.8014 311.883C86.4939 311.883 87.034 311.581 87.4218 310.978C87.8096 310.372 88.005 309.525 88.0081 308.439H87.9342C87.7742 308.704 87.5741 308.931 87.3341 309.122C87.0971 309.313 86.8309 309.461 86.5354 309.565C86.24 309.67 85.9245 309.722 85.589 309.722C85.0443 309.722 84.5488 309.588 84.1025 309.321C83.6563 309.053 83.3008 308.685 83.0361 308.217C82.7715 307.75 82.6391 307.216 82.6391 306.615C82.6391 306.018 82.7745 305.477 83.0454 304.99C83.3193 304.504 83.7009 304.119 84.1903 303.836C84.6827 303.55 85.2597 303.41 85.9214 303.416ZM85.926 304.616C85.566 304.616 85.2413 304.706 84.952 304.884C84.6657 305.06 84.4395 305.298 84.2733 305.6C84.1072 305.898 84.0241 306.231 84.0241 306.597C84.0241 306.963 84.1041 307.296 84.2641 307.594C84.4272 307.89 84.6488 308.125 84.9289 308.3C85.212 308.473 85.5352 308.559 85.8983 308.559C86.1692 308.559 86.4215 308.507 86.6555 308.402C86.8894 308.297 87.094 308.153 87.2694 307.968C87.4449 307.78 87.5818 307.568 87.6803 307.331C87.7788 307.094 87.828 306.845 87.828 306.583C87.828 306.235 87.7449 305.912 87.5787 305.614C87.4156 305.315 87.191 305.075 86.9047 304.893C86.6185 304.709 86.2923 304.616 85.926 304.616Z" fill="#2A2A2A"/>
<path d="M114.104 313.129C113.442 313.129 112.858 313.015 112.35 312.788C111.845 312.56 111.45 312.246 111.163 311.846C110.877 311.446 110.736 310.99 110.739 310.479C110.736 310.079 110.817 309.712 110.983 309.376C111.153 309.038 111.382 308.756 111.671 308.531C111.96 308.304 112.284 308.159 112.641 308.097V308.042C112.17 307.928 111.793 307.676 111.51 307.285C111.226 306.894 111.086 306.445 111.089 305.937C111.086 305.454 111.214 305.023 111.473 304.644C111.734 304.263 112.093 303.962 112.548 303.744C113.004 303.525 113.522 303.416 114.104 303.416C114.68 303.416 115.194 303.527 115.646 303.749C116.101 303.967 116.46 304.267 116.722 304.649C116.983 305.027 117.116 305.457 117.119 305.937C117.116 306.445 116.971 306.894 116.685 307.285C116.398 307.676 116.026 307.928 115.567 308.042V308.097C115.921 308.159 116.24 308.304 116.523 308.531C116.809 308.756 117.037 309.038 117.206 309.376C117.379 309.712 117.466 310.079 117.469 310.479C117.466 310.99 117.322 311.446 117.036 311.846C116.749 312.246 116.352 312.56 115.844 312.788C115.34 313.015 114.76 313.129 114.104 313.129ZM114.104 311.961C114.495 311.961 114.833 311.897 115.12 311.767C115.406 311.635 115.627 311.452 115.784 311.218C115.941 310.981 116.021 310.704 116.025 310.387C116.021 310.058 115.935 309.767 115.766 309.515C115.6 309.262 115.374 309.064 115.087 308.919C114.801 308.774 114.473 308.702 114.104 308.702C113.732 308.702 113.401 308.774 113.112 308.919C112.822 309.064 112.594 309.262 112.428 309.515C112.262 309.767 112.181 310.058 112.184 310.387C112.181 310.704 112.256 310.981 112.41 311.218C112.567 311.452 112.79 311.635 113.079 311.767C113.368 311.897 113.71 311.961 114.104 311.961ZM114.104 307.562C114.418 307.562 114.696 307.499 114.94 307.373C115.183 307.246 115.374 307.071 115.512 306.846C115.654 306.622 115.726 306.358 115.729 306.057C115.726 305.761 115.655 305.503 115.517 305.281C115.381 305.06 115.192 304.889 114.949 304.769C114.706 304.646 114.424 304.584 114.104 304.584C113.778 304.584 113.492 304.646 113.245 304.769C113.002 304.889 112.813 305.06 112.678 305.281C112.542 305.503 112.476 305.761 112.479 306.057C112.476 306.358 112.544 306.622 112.682 306.846C112.821 307.071 113.011 307.246 113.255 307.373C113.501 307.499 113.784 307.562 114.104 307.562ZM126.183 303.102L123.136 314.422H121.904L124.95 303.102H126.183ZM134.365 303.545V313H132.934V304.977H132.878L130.616 306.454V305.087L132.975 303.545H134.365ZM136.922 313V311.966L140.121 308.651C140.463 308.291 140.745 307.976 140.966 307.705C141.191 307.431 141.359 307.171 141.469 306.925C141.58 306.679 141.636 306.417 141.636 306.14C141.636 305.826 141.562 305.555 141.414 305.327C141.266 305.097 141.065 304.92 140.809 304.797C140.554 304.67 140.266 304.607 139.946 304.607C139.607 304.607 139.312 304.676 139.06 304.815C138.807 304.953 138.613 305.149 138.478 305.401C138.342 305.654 138.275 305.949 138.275 306.288H136.913C136.913 305.712 137.045 305.209 137.31 304.778C137.575 304.347 137.938 304.013 138.399 303.776C138.861 303.536 139.386 303.416 139.974 303.416C140.568 303.416 141.091 303.535 141.543 303.772C141.999 304.006 142.354 304.326 142.61 304.732C142.865 305.135 142.993 305.591 142.993 306.098C142.993 306.449 142.927 306.792 142.794 307.128C142.665 307.463 142.439 307.837 142.116 308.25C141.793 308.659 141.343 309.156 140.768 309.741L138.889 311.707V311.777H143.145V313H136.922Z" fill="#2A2A2A"/>
<path d="M163.104 313.129C162.442 313.129 161.858 313.015 161.35 312.788C160.845 312.56 160.45 312.246 160.163 311.846C159.877 311.446 159.736 310.99 159.739 310.479C159.736 310.079 159.817 309.712 159.983 309.376C160.153 309.038 160.382 308.756 160.671 308.531C160.96 308.304 161.284 308.159 161.641 308.097V308.042C161.17 307.928 160.793 307.676 160.51 307.285C160.226 306.894 160.086 306.445 160.089 305.937C160.086 305.454 160.214 305.023 160.473 304.644C160.734 304.263 161.093 303.962 161.548 303.744C162.004 303.525 162.522 303.416 163.104 303.416C163.68 303.416 164.194 303.527 164.646 303.749C165.101 303.967 165.46 304.267 165.722 304.649C165.983 305.027 166.116 305.457 166.119 305.937C166.116 306.445 165.971 306.894 165.685 307.285C165.398 307.676 165.026 307.928 164.567 308.042V308.097C164.921 308.159 165.24 308.304 165.523 308.531C165.809 308.756 166.037 309.038 166.206 309.376C166.379 309.712 166.466 310.079 166.469 310.479C166.466 310.99 166.322 311.446 166.036 311.846C165.749 312.246 165.352 312.56 164.844 312.788C164.34 313.015 163.76 313.129 163.104 313.129ZM163.104 311.961C163.495 311.961 163.833 311.897 164.12 311.767C164.406 311.635 164.627 311.452 164.784 311.218C164.941 310.981 165.021 310.704 165.025 310.387C165.021 310.058 164.935 309.767 164.766 309.515C164.6 309.262 164.374 309.064 164.087 308.919C163.801 308.774 163.473 308.702 163.104 308.702C162.732 308.702 162.401 308.774 162.112 308.919C161.822 309.064 161.594 309.262 161.428 309.515C161.262 309.767 161.181 310.058 161.184 310.387C161.181 310.704 161.256 310.981 161.41 311.218C161.567 311.452 161.79 311.635 162.079 311.767C162.368 311.897 162.71 311.961 163.104 311.961ZM163.104 307.562C163.418 307.562 163.696 307.499 163.94 307.373C164.183 307.246 164.374 307.071 164.512 306.846C164.654 306.622 164.726 306.358 164.729 306.057C164.726 305.761 164.655 305.503 164.517 305.281C164.381 305.06 164.192 304.889 163.949 304.769C163.706 304.646 163.424 304.584 163.104 304.584C162.778 304.584 162.492 304.646 162.245 304.769C162.002 304.889 161.813 305.06 161.678 305.281C161.542 305.503 161.476 305.761 161.479 306.057C161.476 306.358 161.544 306.622 161.682 306.846C161.821 307.071 162.011 307.246 162.255 307.373C162.501 307.499 162.784 307.562 163.104 307.562ZM175.183 303.102L172.136 314.422H170.904L173.95 303.102H175.183ZM183.365 303.545V313H181.934V304.977H181.878L179.616 306.454V305.087L181.975 303.545H183.365ZM189.043 313.129C188.464 313.129 187.944 313.018 187.483 312.797C187.024 312.572 186.658 312.264 186.384 311.874C186.11 311.483 185.964 311.036 185.945 310.535H187.33C187.364 310.941 187.544 311.275 187.87 311.537C188.197 311.798 188.587 311.929 189.043 311.929C189.406 311.929 189.728 311.846 190.008 311.68C190.291 311.51 190.512 311.278 190.672 310.983C190.836 310.687 190.917 310.35 190.917 309.972C190.917 309.587 190.834 309.244 190.668 308.942C190.502 308.641 190.272 308.404 189.98 308.231C189.691 308.059 189.358 307.971 188.983 307.968C188.697 307.968 188.409 308.017 188.12 308.116C187.83 308.214 187.596 308.344 187.418 308.504L186.111 308.31L186.642 303.545H191.84V304.769H187.829L187.529 307.414H187.584C187.769 307.236 188.013 307.086 188.318 306.966C188.626 306.846 188.955 306.786 189.306 306.786C189.882 306.786 190.394 306.923 190.843 307.197C191.296 307.471 191.651 307.845 191.91 308.319C192.171 308.79 192.301 309.331 192.297 309.944C192.301 310.556 192.162 311.103 191.882 311.583C191.605 312.063 191.22 312.441 190.728 312.718C190.239 312.992 189.677 313.129 189.043 313.129Z" fill="#2A2A2A"/>
<path d="M212.104 313.129C211.442 313.129 210.858 313.015 210.35 312.788C209.845 312.56 209.45 312.246 209.163 311.846C208.877 311.446 208.736 310.99 208.739 310.479C208.736 310.079 208.817 309.712 208.983 309.376C209.153 309.038 209.382 308.756 209.671 308.531C209.96 308.304 210.284 308.159 210.641 308.097V308.042C210.17 307.928 209.793 307.676 209.51 307.285C209.226 306.894 209.086 306.445 209.089 305.937C209.086 305.454 209.214 305.023 209.473 304.644C209.734 304.263 210.093 303.962 210.548 303.744C211.004 303.525 211.522 303.416 212.104 303.416C212.68 303.416 213.194 303.527 213.646 303.749C214.101 303.967 214.46 304.267 214.722 304.649C214.983 305.027 215.116 305.457 215.119 305.937C215.116 306.445 214.971 306.894 214.685 307.285C214.398 307.676 214.026 307.928 213.567 308.042V308.097C213.921 308.159 214.24 308.304 214.523 308.531C214.809 308.756 215.037 309.038 215.206 309.376C215.379 309.712 215.466 310.079 215.469 310.479C215.466 310.99 215.322 311.446 215.036 311.846C214.749 312.246 214.352 312.56 213.844 312.788C213.34 313.015 212.76 313.129 212.104 313.129ZM212.104 311.961C212.495 311.961 212.833 311.897 213.12 311.767C213.406 311.635 213.627 311.452 213.784 311.218C213.941 310.981 214.021 310.704 214.025 310.387C214.021 310.058 213.935 309.767 213.766 309.515C213.6 309.262 213.374 309.064 213.087 308.919C212.801 308.774 212.473 308.702 212.104 308.702C211.732 308.702 211.401 308.774 211.112 308.919C210.822 309.064 210.594 309.262 210.428 309.515C210.262 309.767 210.181 310.058 210.184 310.387C210.181 310.704 210.256 310.981 210.41 311.218C210.567 311.452 210.79 311.635 211.079 311.767C211.368 311.897 211.71 311.961 212.104 311.961ZM212.104 307.562C212.418 307.562 212.696 307.499 212.94 307.373C213.183 307.246 213.374 307.071 213.512 306.846C213.654 306.622 213.726 306.358 213.729 306.057C213.726 305.761 213.655 305.503 213.517 305.281C213.381 305.06 213.192 304.889 212.949 304.769C212.706 304.646 212.424 304.584 212.104 304.584C211.778 304.584 211.492 304.646 211.245 304.769C211.002 304.889 210.813 305.06 210.678 305.281C210.542 305.503 210.476 305.761 210.479 306.057C210.476 306.358 210.544 306.622 210.682 306.846C210.821 307.071 211.011 307.246 211.255 307.373C211.501 307.499 211.784 307.562 212.104 307.562ZM224.183 303.102L221.136 314.422H219.904L222.95 303.102H224.183ZM228.778 313V311.966L231.977 308.651C232.318 308.291 232.6 307.976 232.822 307.705C233.046 307.431 233.214 307.171 233.325 306.925C233.436 306.679 233.491 306.417 233.491 306.14C233.491 305.826 233.417 305.555 233.269 305.327C233.122 305.097 232.92 304.92 232.665 304.797C232.409 304.67 232.121 304.607 231.801 304.607C231.463 304.607 231.167 304.676 230.915 304.815C230.663 304.953 230.469 305.149 230.333 305.401C230.198 305.654 230.13 305.949 230.13 306.288H228.768C228.768 305.712 228.901 305.209 229.165 304.778C229.43 304.347 229.793 304.013 230.255 303.776C230.717 303.536 231.241 303.416 231.829 303.416C232.423 303.416 232.946 303.535 233.399 303.772C233.854 304.006 234.21 304.326 234.465 304.732C234.721 305.135 234.848 305.591 234.848 306.098C234.848 306.449 234.782 306.792 234.65 307.128C234.521 307.463 234.294 307.837 233.971 308.25C233.648 308.659 233.199 309.156 232.623 309.741L230.744 311.707V311.777H235.001V313H228.778ZM240.042 313.157C239.312 313.154 238.689 312.962 238.172 312.58C237.655 312.198 237.26 311.643 236.986 310.913C236.712 310.184 236.575 309.305 236.575 308.277C236.575 307.252 236.712 306.377 236.986 305.651C237.263 304.924 237.66 304.37 238.177 303.989C238.697 303.607 239.319 303.416 240.042 303.416C240.765 303.416 241.385 303.609 241.902 303.993C242.419 304.375 242.815 304.929 243.089 305.655C243.366 306.378 243.504 307.252 243.504 308.277C243.504 309.308 243.367 310.189 243.093 310.918C242.819 311.644 242.424 312.2 241.907 312.585C241.39 312.966 240.768 313.157 240.042 313.157ZM240.042 311.924C240.682 311.924 241.182 311.612 241.542 310.987C241.905 310.362 242.087 309.459 242.087 308.277C242.087 307.493 242.004 306.829 241.838 306.288C241.675 305.743 241.439 305.33 241.131 305.05C240.827 304.767 240.463 304.626 240.042 304.626C239.405 304.626 238.905 304.94 238.541 305.567C238.178 306.195 237.995 307.099 237.992 308.277C237.992 309.065 238.074 309.732 238.237 310.276C238.403 310.818 238.638 311.229 238.943 311.509C239.248 311.786 239.614 311.924 240.042 311.924Z" fill="#2A2A2A"/>
<path d="M263.104 313.129C262.442 313.129 261.858 313.015 261.35 312.788C260.845 312.56 260.45 312.246 260.163 311.846C259.877 311.446 259.736 310.99 259.739 310.479C259.736 310.079 259.817 309.712 259.983 309.376C260.153 309.038 260.382 308.756 260.671 308.531C260.96 308.304 261.284 308.159 261.641 308.097V308.042C261.17 307.928 260.793 307.676 260.51 307.285C260.226 306.894 260.086 306.445 260.089 305.937C260.086 305.454 260.214 305.023 260.473 304.644C260.734 304.263 261.093 303.962 261.548 303.744C262.004 303.525 262.522 303.416 263.104 303.416C263.68 303.416 264.194 303.527 264.646 303.749C265.101 303.967 265.46 304.267 265.722 304.649C265.983 305.027 266.116 305.457 266.119 305.937C266.116 306.445 265.971 306.894 265.685 307.285C265.398 307.676 265.026 307.928 264.567 308.042V308.097C264.921 308.159 265.24 308.304 265.523 308.531C265.809 308.756 266.037 309.038 266.206 309.376C266.379 309.712 266.466 310.079 266.469 310.479C266.466 310.99 266.322 311.446 266.036 311.846C265.749 312.246 265.352 312.56 264.844 312.788C264.34 313.015 263.76 313.129 263.104 313.129ZM263.104 311.961C263.495 311.961 263.833 311.897 264.12 311.767C264.406 311.635 264.627 311.452 264.784 311.218C264.941 310.981 265.021 310.704 265.025 310.387C265.021 310.058 264.935 309.767 264.766 309.515C264.6 309.262 264.374 309.064 264.087 308.919C263.801 308.774 263.473 308.702 263.104 308.702C262.732 308.702 262.401 308.774 262.112 308.919C261.822 309.064 261.594 309.262 261.428 309.515C261.262 309.767 261.181 310.058 261.184 310.387C261.181 310.704 261.256 310.981 261.41 311.218C261.567 311.452 261.79 311.635 262.079 311.767C262.368 311.897 262.71 311.961 263.104 311.961ZM263.104 307.562C263.418 307.562 263.696 307.499 263.94 307.373C264.183 307.246 264.374 307.071 264.512 306.846C264.654 306.622 264.726 306.358 264.729 306.057C264.726 305.761 264.655 305.503 264.517 305.281C264.381 305.06 264.192 304.889 263.949 304.769C263.706 304.646 263.424 304.584 263.104 304.584C262.778 304.584 262.492 304.646 262.245 304.769C262.002 304.889 261.813 305.06 261.678 305.281C261.542 305.503 261.476 305.761 261.479 306.057C261.476 306.358 261.544 306.622 261.682 306.846C261.821 307.071 262.011 307.246 262.255 307.373C262.501 307.499 262.784 307.562 263.104 307.562ZM275.183 303.102L272.136 314.422H270.904L273.95 303.102H275.183ZM279.778 313V311.966L282.977 308.651C283.318 308.291 283.6 307.976 283.822 307.705C284.046 307.431 284.214 307.171 284.325 306.925C284.436 306.679 284.491 306.417 284.491 306.14C284.491 305.826 284.417 305.555 284.269 305.327C284.122 305.097 283.92 304.92 283.665 304.797C283.409 304.67 283.121 304.607 282.801 304.607C282.463 304.607 282.167 304.676 281.915 304.815C281.663 304.953 281.469 305.149 281.333 305.401C281.198 305.654 281.13 305.949 281.13 306.288H279.768C279.768 305.712 279.901 305.209 280.165 304.778C280.43 304.347 280.793 304.013 281.255 303.776C281.717 303.536 282.241 303.416 282.829 303.416C283.423 303.416 283.946 303.535 284.399 303.772C284.854 304.006 285.21 304.326 285.465 304.732C285.721 305.135 285.848 305.591 285.848 306.098C285.848 306.449 285.782 306.792 285.65 307.128C285.521 307.463 285.294 307.837 284.971 308.25C284.648 308.659 284.199 309.156 283.623 309.741L281.744 311.707V311.777H286.001V313H279.778ZM287.75 313V311.966L290.949 308.651C291.291 308.291 291.573 307.976 291.794 307.705C292.019 307.431 292.187 307.171 292.297 306.925C292.408 306.679 292.464 306.417 292.464 306.14C292.464 305.826 292.39 305.555 292.242 305.327C292.094 305.097 291.893 304.92 291.637 304.797C291.382 304.67 291.094 304.607 290.774 304.607C290.436 304.607 290.14 304.676 289.888 304.815C289.635 304.953 289.441 305.149 289.306 305.401C289.171 305.654 289.103 305.949 289.103 306.288H287.741C287.741 305.712 287.873 305.209 288.138 304.778C288.403 304.347 288.766 304.013 289.228 303.776C289.689 303.536 290.214 303.416 290.802 303.416C291.396 303.416 291.919 303.535 292.371 303.772C292.827 304.006 293.182 304.326 293.438 304.732C293.693 305.135 293.821 305.591 293.821 306.098C293.821 306.449 293.755 306.792 293.622 307.128C293.493 307.463 293.267 307.837 292.944 308.25C292.621 308.659 292.171 309.156 291.596 309.741L289.717 311.707V311.777H293.973V313H287.75Z" fill="#2A2A2A"/>
<path d="M6.90945 241V239.966L10.1087 236.651C10.4503 236.291 10.7319 235.976 10.9535 235.705C11.1781 235.431 11.3459 235.171 11.4567 234.925C11.5675 234.679 11.6229 234.417 11.6229 234.14C11.6229 233.826 11.549 233.555 11.4013 233.327C11.2536 233.097 11.052 232.92 10.7965 232.797C10.5411 232.67 10.2533 232.607 9.93324 232.607C9.5947 232.607 9.29924 232.676 9.04688 232.815C8.79451 232.953 8.60062 233.149 8.4652 233.401C8.32978 233.654 8.26207 233.949 8.26207 234.288H6.90021C6.90021 233.712 7.03255 233.209 7.29723 232.778C7.56191 232.347 7.92507 232.013 8.38672 231.776C8.84837 231.536 9.37311 231.416 9.96094 231.416C10.5549 231.416 11.0781 231.535 11.5305 231.772C11.986 232.006 12.3415 232.326 12.5969 232.732C12.8524 233.135 12.9801 233.591 12.9801 234.098C12.9801 234.449 12.9139 234.792 12.7816 235.128C12.6523 235.463 12.4261 235.837 12.103 236.25C11.7798 236.659 11.3305 237.156 10.755 237.741L8.87607 239.707V239.777H13.1325V241H6.90945ZM18.1737 241.157C17.4442 241.154 16.821 240.962 16.304 240.58C15.7869 240.198 15.3915 239.643 15.1175 238.913C14.8436 238.184 14.7067 237.305 14.7067 236.277C14.7067 235.252 14.8436 234.377 15.1175 233.651C15.3945 232.924 15.7915 232.37 16.3086 231.989C16.8287 231.607 17.4504 231.416 18.1737 231.416C18.8969 231.416 19.517 231.609 20.0341 231.993C20.5511 232.375 20.9466 232.929 21.2205 233.655C21.4975 234.378 21.636 235.252 21.636 236.277C21.636 237.308 21.4991 238.189 21.2251 238.918C20.9512 239.644 20.5558 240.2 20.0387 240.585C19.5217 240.966 18.9 241.157 18.1737 241.157ZM18.1737 239.924C18.8138 239.924 19.3139 239.612 19.674 238.987C20.0372 238.362 20.2188 237.459 20.2188 236.277C20.2188 235.493 20.1357 234.829 19.9695 234.288C19.8063 233.743 19.5709 233.33 19.2631 233.05C18.9585 232.767 18.5953 232.626 18.1737 232.626C17.5366 232.626 17.0365 232.94 16.6733 233.567C16.3101 234.195 16.127 235.099 16.1239 236.277C16.1239 237.065 16.2055 237.732 16.3686 238.276C16.5348 238.818 16.7702 239.229 17.0749 239.509C17.3796 239.786 17.7459 239.924 18.1737 239.924Z" fill="black"/>
<path d="M6.71094 182.153V180.999L10.7965 174.545H11.706V176.244H11.1289L8.20668 180.87V180.944H13.8065V182.153H6.71094ZM11.1935 184V181.803L11.2028 181.276V174.545H12.5554V184H11.1935ZM18.7069 184.157C17.9775 184.154 17.3542 183.962 16.8372 183.58C16.3201 183.198 15.9247 182.643 15.6507 181.913C15.3768 181.184 15.2399 180.305 15.2399 179.277C15.2399 178.252 15.3768 177.377 15.6507 176.651C15.9277 175.924 16.3248 175.37 16.8418 174.989C17.3619 174.607 17.9836 174.416 18.7069 174.416C19.4301 174.416 20.0502 174.609 20.5673 174.993C21.0843 175.375 21.4798 175.929 21.7537 176.655C22.0307 177.378 22.1692 178.252 22.1692 179.277C22.1692 180.308 22.0323 181.189 21.7583 181.918C21.4844 182.644 21.089 183.2 20.5719 183.585C20.0549 183.966 19.4332 184.157 18.7069 184.157ZM18.7069 182.924C19.347 182.924 19.8471 182.612 20.2072 181.987C20.5704 181.362 20.752 180.459 20.752 179.277C20.752 178.493 20.6689 177.829 20.5027 177.288C20.3395 176.743 20.1041 176.33 19.7963 176.05C19.4917 175.767 19.1285 175.626 18.7069 175.626C18.0698 175.626 17.5697 175.94 17.2065 176.567C16.8433 177.195 16.6602 178.099 16.6571 179.277C16.6571 180.065 16.7387 180.732 16.9018 181.276C17.068 181.818 17.3034 182.229 17.6081 182.509C17.9128 182.786 18.2791 182.924 18.7069 182.924Z" fill="black"/>
<path d="M10.2102 127.129C9.78859 127.123 9.37311 127.046 8.96378 126.898C8.55753 126.751 8.18821 126.504 7.85582 126.16C7.52344 125.815 7.25722 125.352 7.05717 124.77C6.8602 124.189 6.76172 123.462 6.76172 122.591C6.76172 121.766 6.84328 121.034 7.00639 120.394C7.17259 119.754 7.4111 119.214 7.72195 118.773C8.03279 118.33 8.40826 117.993 8.84837 117.762C9.28847 117.532 9.78243 117.416 10.3303 117.416C10.8935 117.416 11.3936 117.527 11.8306 117.749C12.2676 117.97 12.6216 118.276 12.8924 118.667C13.1663 119.058 13.3402 119.503 13.4141 120.001H12.006C11.9106 119.607 11.7214 119.286 11.4382 119.037C11.1551 118.787 10.7857 118.663 10.3303 118.663C9.63778 118.663 9.09766 118.964 8.70987 119.567C8.32517 120.171 8.13127 121.009 8.1282 122.083H8.19744C8.36056 121.816 8.56061 121.588 8.79759 121.4C9.03764 121.209 9.3054 121.063 9.60085 120.962C9.89938 120.857 10.2133 120.805 10.5426 120.805C11.0904 120.805 11.5859 120.939 12.0291 121.206C12.4754 121.471 12.8308 121.837 13.0955 122.305C13.3602 122.773 13.4925 123.308 13.4925 123.912C13.4925 124.515 13.3556 125.061 13.0817 125.55C12.8108 126.04 12.4292 126.428 11.9368 126.714C11.4444 126.997 10.8688 127.135 10.2102 127.129ZM10.2056 125.929C10.5688 125.929 10.8935 125.84 11.1797 125.661C11.4659 125.483 11.6921 125.243 11.8583 124.941C12.0245 124.639 12.1076 124.302 12.1076 123.93C12.1076 123.567 12.026 123.236 11.8629 122.938C11.7029 122.639 11.4813 122.402 11.1982 122.227C10.9181 122.051 10.598 121.963 10.2379 121.963C9.96402 121.963 9.71011 122.016 9.47621 122.12C9.24538 122.225 9.04226 122.37 8.86683 122.554C8.69141 122.739 8.55291 122.951 8.45135 123.191C8.35286 123.428 8.30362 123.679 8.30362 123.944C8.30362 124.298 8.38518 124.626 8.5483 124.927C8.71449 125.229 8.9407 125.472 9.22692 125.657C9.51622 125.838 9.84245 125.929 10.2056 125.929ZM18.4656 127.157C17.7362 127.154 17.113 126.962 16.596 126.58C16.0789 126.198 15.6834 125.643 15.4095 124.913C15.1356 124.184 14.9987 123.305 14.9987 122.277C14.9987 121.252 15.1356 120.377 15.4095 119.651C15.6865 118.924 16.0835 118.37 16.6006 117.989C17.1207 117.607 17.7424 117.416 18.4656 117.416C19.1889 117.416 19.809 117.609 20.3261 117.993C20.8431 118.375 21.2386 118.929 21.5125 119.655C21.7895 120.378 21.928 121.252 21.928 122.277C21.928 123.308 21.791 124.189 21.5171 124.918C21.2432 125.644 20.8477 126.2 20.3307 126.585C19.8137 126.966 19.192 127.157 18.4656 127.157ZM18.4656 125.924C19.1058 125.924 19.6059 125.612 19.966 124.987C20.3292 124.362 20.5107 123.459 20.5107 122.277C20.5107 121.493 20.4276 120.829 20.2615 120.288C20.0983 119.743 19.8629 119.33 19.5551 119.05C19.2504 118.767 18.8873 118.626 18.4656 118.626C17.8286 118.626 17.3285 118.94 16.9653 119.567C16.6021 120.195 16.419 121.099 16.4159 122.277C16.4159 123.065 16.4975 123.732 16.6606 124.276C16.8268 124.818 17.0622 125.229 17.3669 125.509C17.6716 125.786 18.0378 125.924 18.4656 125.924Z" fill="black"/>
<path d="M10.104 70.1293C9.44235 70.1293 8.8576 70.0154 8.34979 69.7876C7.84505 69.5599 7.44957 69.246 7.16335 68.8459C6.87713 68.4458 6.73556 67.9903 6.73864 67.4794C6.73556 67.0793 6.81712 66.7115 6.98331 66.3761C7.15258 66.0375 7.38187 65.7559 7.67116 65.5312C7.96046 65.3035 8.28362 65.1589 8.64062 65.0973V65.0419C8.16974 64.928 7.79273 64.6757 7.50959 64.2848C7.22644 63.8939 7.08641 63.4446 7.08949 62.9368C7.08641 62.4536 7.21413 62.0227 7.47266 61.6442C7.73426 61.2625 8.0928 60.9625 8.5483 60.744C9.00379 60.5254 9.52237 60.4162 10.104 60.4162C10.6796 60.4162 11.1935 60.527 11.646 60.7486C12.1014 60.9671 12.46 61.2672 12.7216 61.6488C12.9832 62.0273 13.1155 62.4567 13.1186 62.9368C13.1155 63.4446 12.9709 63.8939 12.6847 64.2848C12.3984 64.6757 12.026 64.928 11.5675 65.0419V65.0973C11.9214 65.1589 12.2399 65.3035 12.5231 65.5312C12.8093 65.7559 13.0371 66.0375 13.2063 66.3761C13.3787 66.7115 13.4664 67.0793 13.4695 67.4794C13.4664 67.9903 13.3217 68.4458 13.0355 68.8459C12.7493 69.246 12.3523 69.5599 11.8445 69.7876C11.3397 70.0154 10.7596 70.1293 10.104 70.1293ZM10.104 68.9613C10.4949 68.9613 10.8335 68.8967 11.1197 68.7674C11.4059 68.6351 11.6275 68.4519 11.7844 68.218C11.9414 67.9811 12.0214 67.7041 12.0245 67.3871C12.0214 67.0578 11.9353 66.7669 11.766 66.5146C11.5998 66.2622 11.3736 66.0637 11.0874 65.919C10.8011 65.7744 10.4734 65.7021 10.104 65.7021C9.73165 65.7021 9.40081 65.7744 9.11151 65.919C8.82221 66.0637 8.59446 66.2622 8.42827 66.5146C8.26207 66.7669 8.18052 67.0578 8.18359 67.3871C8.18052 67.7041 8.25592 67.9811 8.4098 68.218C8.56676 68.4519 8.78989 68.6351 9.07919 68.7674C9.36849 68.8967 9.71011 68.9613 10.104 68.9613ZM10.104 64.5618C10.418 64.5618 10.6965 64.4987 10.9396 64.3725C11.1828 64.2463 11.3736 64.0709 11.5121 63.8462C11.6536 63.6216 11.726 63.3584 11.729 63.0568C11.726 62.7614 11.6552 62.5028 11.5167 62.2812C11.3813 62.0597 11.192 61.8888 10.9489 61.7688C10.7057 61.6457 10.4241 61.5842 10.104 61.5842C9.77782 61.5842 9.4916 61.6457 9.24538 61.7688C9.00225 61.8888 8.81297 62.0597 8.67756 62.2812C8.54214 62.5028 8.47597 62.7614 8.47905 63.0568C8.47597 63.3584 8.54368 63.6216 8.68217 63.8462C8.82067 64.0709 9.01148 64.2463 9.25462 64.3725C9.50083 64.4987 9.78397 64.5618 10.104 64.5618ZM18.4149 70.157C17.6855 70.1539 17.0622 69.9615 16.5452 69.5799C16.0281 69.1983 15.6327 68.6428 15.3588 67.9134C15.0848 67.1839 14.9479 66.3053 14.9479 65.2773C14.9479 64.2525 15.0848 63.3769 15.3588 62.6506C15.6357 61.9242 16.0328 61.3703 16.5498 60.9886C17.0699 60.607 17.6916 60.4162 18.4149 60.4162C19.1381 60.4162 19.7583 60.6085 20.2753 60.9933C20.7923 61.3749 21.1878 61.9289 21.4617 62.6552C21.7387 63.3784 21.8772 64.2525 21.8772 65.2773C21.8772 66.3084 21.7403 67.1886 21.4664 67.918C21.1924 68.6443 20.797 69.1998 20.2799 69.5845C19.7629 69.9661 19.1412 70.157 18.4149 70.157ZM18.4149 68.9244C19.055 68.9244 19.5551 68.612 19.9152 67.9872C20.2784 67.3625 20.46 66.4592 20.46 65.2773C20.46 64.4925 20.3769 63.8293 20.2107 63.2876C20.0476 62.7429 19.8121 62.3305 19.5044 62.0504C19.1997 61.7673 18.8365 61.6257 18.4149 61.6257C17.7778 61.6257 17.2777 61.9396 16.9145 62.5675C16.5513 63.1953 16.3682 64.0986 16.3651 65.2773C16.3651 66.0652 16.4467 66.7315 16.6098 67.2763C16.776 67.8179 17.0115 68.2288 17.3161 68.5089C17.6208 68.7859 17.9871 68.9244 18.4149 68.9244Z" fill="black"/>
<path d="M4.49645 3.54545V13H3.06534V4.97656H3.00994L0.747869 6.45384V5.08736L3.10689 3.54545H4.49645ZM10.3455 13.157C9.61612 13.1539 8.9929 12.9615 8.47585 12.5799C7.95881 12.1983 7.56333 11.6428 7.28942 10.9134C7.01551 10.1839 6.87855 9.30528 6.87855 8.27734C6.87855 7.25249 7.01551 6.37689 7.28942 5.65057C7.56641 4.92424 7.96342 4.37026 8.48047 3.98864C9.00059 3.60701 9.62228 3.41619 10.3455 3.41619C11.0688 3.41619 11.6889 3.60855 12.206 3.99325C12.723 4.37488 13.1185 4.92886 13.3924 5.65518C13.6694 6.37843 13.8079 7.25249 13.8079 8.27734C13.8079 9.30836 13.6709 10.1886 13.397 10.918C13.1231 11.6443 12.7276 12.1998 12.2106 12.5845C11.6935 12.9661 11.0719 13.157 10.3455 13.157ZM10.3455 11.9244C10.9857 11.9244 11.4858 11.612 11.8459 10.9872C12.209 10.3625 12.3906 9.45916 12.3906 8.27734C12.3906 7.49254 12.3075 6.82931 12.1413 6.28764C11.9782 5.7429 11.7428 5.33049 11.435 5.05043C11.1303 4.76728 10.7672 4.62571 10.3455 4.62571C9.70845 4.62571 9.20833 4.93963 8.84517 5.56747C8.48201 6.19531 8.29889 7.0986 8.29581 8.27734C8.29581 9.06522 8.37737 9.73153 8.54048 10.2763C8.70668 10.8179 8.94212 11.2288 9.2468 11.5089C9.55149 11.7859 9.91773 11.9244 10.3455 11.9244ZM18.7371 13.157C18.0077 13.1539 17.3845 12.9615 16.8675 12.5799C16.3504 12.1983 15.9549 11.6428 15.681 10.9134C15.4071 10.1839 15.2702 9.30528 15.2702 8.27734C15.2702 7.25249 15.4071 6.37689 15.681 5.65057C15.958 4.92424 16.355 4.37026 16.8721 3.98864C17.3922 3.60701 18.0139 3.41619 18.7371 3.41619C19.4604 3.41619 20.0805 3.60855 20.5976 3.99325C21.1146 4.37488 21.5101 4.92886 21.784 5.65518C22.061 6.37843 22.1995 7.25249 22.1995 8.27734C22.1995 9.30836 22.0625 10.1886 21.7886 10.918C21.5147 11.6443 21.1192 12.1998 20.6022 12.5845C20.0851 12.9661 19.4635 13.157 18.7371 13.157ZM18.7371 11.9244C19.3773 11.9244 19.8774 11.612 20.2375 10.9872C20.6006 10.3625 20.7822 9.45916 20.7822 8.27734C20.7822 7.49254 20.6991 6.82931 20.5329 6.28764C20.3698 5.7429 20.1344 5.33049 19.8266 5.05043C19.5219 4.76728 19.1588 4.62571 18.7371 4.62571C18.1001 4.62571 17.5999 4.93963 17.2368 5.56747C16.8736 6.19531 16.6905 7.0986 16.6874 8.27734C16.6874 9.06522 16.769 9.73153 16.9321 10.2763C17.0983 10.8179 17.3337 11.2288 17.6384 11.5089C17.9431 11.7859 18.3093 11.9244 18.7371 11.9244Z" fill="black"/>
</svg>
