<svg width="24" height="24" viewBox="0 0 24 24" fill="none" xmlns="http://www.w3.org/2000/svg">
<g filter="url(#filter0_d_313_70)">
<circle cx="11" cy="10" r="9" fill="#88C0A8"/>
</g>
<path d="M10.23 12.612C10.1553 12.2293 10.1693 11.884 10.272 11.576C10.384 11.268 10.5473 10.9927 10.762 10.75C10.986 10.498 11.2287 10.2693 11.49 10.064C11.7607 9.84933 12.0173 9.63933 12.26 9.434C12.5027 9.22867 12.7033 9.01867 12.862 8.804C13.0207 8.58 13.1 8.33733 13.1 8.076C13.1 7.74933 13.0207 7.46 12.862 7.208C12.7033 6.956 12.47 6.76 12.162 6.62C11.854 6.47067 11.4573 6.396 10.972 6.396C10.496 6.396 10.034 6.50333 9.586 6.718C9.14733 6.92333 8.72733 7.24067 8.326 7.67L7.57 6.97C8.03667 6.47533 8.55467 6.08333 9.124 5.794C9.69333 5.49533 10.356 5.346 11.112 5.346C11.7747 5.346 12.344 5.45333 12.82 5.668C13.3053 5.88267 13.6787 6.186 13.94 6.578C14.2107 6.96067 14.346 7.42267 14.346 7.964C14.346 8.31867 14.2667 8.63133 14.108 8.902C13.9493 9.17267 13.744 9.42 13.492 9.644C13.2493 9.868 12.9927 10.0873 12.722 10.302C12.4513 10.5073 12.1993 10.722 11.966 10.946C11.742 11.17 11.5693 11.4173 11.448 11.688C11.336 11.9587 11.3127 12.2667 11.378 12.612H10.23ZM10.832 16.07C10.58 16.07 10.3653 15.986 10.188 15.818C10.0107 15.65 9.922 15.426 9.922 15.146C9.922 14.866 10.0107 14.642 10.188 14.474C10.3653 14.2967 10.58 14.208 10.832 14.208C11.0747 14.208 11.2847 14.2967 11.462 14.474C11.6393 14.642 11.728 14.866 11.728 15.146C11.728 15.426 11.6393 15.65 11.462 15.818C11.2847 15.986 11.0747 16.07 10.832 16.07Z" fill="white"/>
<defs>
<filter id="filter0_d_313_70" x="0" y="0" width="24" height="24" filterUnits="userSpaceOnUse" color-interpolation-filters="sRGB">
<feFlood flood-opacity="0" result="BackgroundImageFix"/>
<feColorMatrix in="SourceAlpha" type="matrix" values="0 0 0 0 0 0 0 0 0 0 0 0 0 0 0 0 0 0 127 0" result="hardAlpha"/>
<feOffset dx="1" dy="2"/>
<feGaussianBlur stdDeviation="1.5"/>
<feComposite in2="hardAlpha" operator="out"/>
<feColorMatrix type="matrix" values="0 0 0 0 0 0 0 0 0 0 0 0 0 0 0 0 0 0 0.25 0"/>
<feBlend mode="normal" in2="BackgroundImageFix" result="effect1_dropShadow_313_70"/>
<feBlend mode="normal" in="SourceGraphic" in2="effect1_dropShadow_313_70" result="shape"/>
</filter>
</defs>
</svg>
